<?xml version="1.0" standalone="no"?>
<!DOCTYPE svg PUBLIC "-//W3C//DTD SVG 20010904//EN"
 "http://www.w3.org/TR/2001/REC-SVG-20010904/DTD/svg10.dtd">
<svg version="1.0" xmlns="http://www.w3.org/2000/svg"
 width="183.000000pt" height="183.000000pt" viewBox="0 0 183.000000 183.000000"
 preserveAspectRatio="xMidYMid meet">
<metadata>
Created by potrace 1.11, written by Peter Selinger 2001-2013
</metadata>
<g transform="translate(0.000000,183.000000) scale(0.100000,-0.100000)"
fill="#000000" stroke="none">
<path d="M923 1283 l4 -28 246 0 c136 -1 247 2 248 5 0 3 2 15 3 28 l3 22
-254 0 -254 0 4 -27z"/>
<path d="M29 1185 c0 -3 -1 -112 -2 -242 l0 -238 56 -3 c52 -3 57 -1 57 18 0
16 -6 20 -35 20 l-35 0 0 206 0 205 23 -1 c39 -4 47 0 47 20 0 18 -7 20 -55
20 -30 0 -55 -2 -56 -5z"/>
<path d="M1682 1168 c2 -17 10 -22 33 -23 l30 0 3 -202 2 -203 -35 0 c-28 0
-35 -4 -35 -20 0 -18 7 -20 55 -20 30 0 56 3 56 8 3 20 5 459 1 468 -2 6 -27
12 -58 13 -52 1 -55 -1 -52 -21z"/>
<path d="M875 1117 c-83 -27 -135 -104 -135 -198 1 -118 75 -198 190 -204 175
-9 270 184 166 338 -38 56 -148 88 -221 64z m131 -63 c72 -34 94 -154 42 -229
-27 -41 -56 -55 -109 -55 -55 0 -95 23 -117 68 -41 83 -18 179 53 220 29 16
91 15 131 -4z"/>
<path d="M1325 1121 c-97 -24 -157 -110 -150 -217 7 -107 76 -180 180 -188 64
-6 112 10 157 53 59 54 79 154 48 236 -12 32 -59 84 -89 99 -33 18 -107 26
-146 17z m123 -71 c59 -36 83 -141 47 -209 -48 -94 -192 -93 -241 1 -21 41
-21 115 0 157 35 67 128 91 194 51z"/>
<path d="M220 1112 c0 -7 79 -287 106 -374 4 -12 16 -18 38 -18 l32 0 39 149
c22 83 41 149 42 147 2 -2 19 -61 39 -132 19 -71 37 -137 40 -146 4 -12 16
-18 38 -18 l32 0 53 188 c29 103 54 193 57 200 2 8 -8 12 -31 12 -39 0 -32 15
-81 -182 -16 -65 -32 -118 -35 -118 -4 0 -21 55 -38 123 -46 176 -44 172 -73
175 -24 3 -26 -2 -68 -154 -24 -87 -46 -152 -48 -144 -3 8 -21 78 -41 155
l-36 140 -32 3 c-18 2 -33 -1 -33 -6z"/>
</g>
</svg>
