<?xml version="1.0" encoding="UTF-8"?>
<svg width="16px" height="14px" viewBox="0 0 16 14" version="1.1" xmlns="http://www.w3.org/2000/svg" xmlns:xlink="http://www.w3.org/1999/xlink">
    <!-- Generator: Sketch 49.3 (51167) - http://www.bohemiancoding.com/sketch -->
    <title>Twitter-color</title>
    <desc>Created with Sketch.</desc>
    <defs></defs>
    <g id="Symbols" stroke="none" stroke-width="1" fill="none" fill-rule="evenodd">
        <g id="footer" transform="translate(-1259.000000, -214.000000)" fill="#00AAEC">
            <g id="Twitter">
                <path d="M1275,215.657349 C1274.4121,215.938462 1273.77913,216.128566 1273.11516,216.213507 C1273.79321,215.77667 1274.31349,215.084001 1274.55861,214.258866 C1273.92375,214.663344 1273.22222,214.957602 1272.47279,215.115349 C1271.87551,214.428747 1271.02183,214 1270.07707,214 C1268.26548,214 1266.79574,215.582521 1266.79574,217.534128 C1266.79574,217.811195 1266.82391,218.080173 1266.88026,218.339039 C1264.15208,218.191405 1261.73381,216.785843 1260.11381,214.645143 C1259.83113,215.168942 1259.6696,215.77667 1259.6696,216.423835 C1259.6696,217.649404 1260.24905,218.731383 1261.12995,219.365403 C1260.59277,219.348212 1260.08564,219.187432 1259.64237,218.924521 L1259.64237,218.968003 C1259.64237,220.680968 1260.77402,222.109787 1262.27663,222.433369 C1262.00147,222.516287 1261.71128,222.557746 1261.41169,222.557746 C1261.20039,222.557746 1260.99378,222.536511 1260.79374,222.495052 C1261.21166,223.898592 1262.42314,224.92091 1263.86001,224.948212 C1262.73681,225.896714 1261.3206,226.461972 1259.78324,226.461972 C1259.5184,226.461972 1259.25638,226.445793 1259,226.413434 C1260.45284,227.414518 1262.17896,228 1264.03187,228 C1270.07049,228 1273.37154,222.615385 1273.37154,217.944673 C1273.37154,217.790971 1273.36873,217.63727 1273.36309,217.486602 C1274.00452,216.988082 1274.56143,216.366197 1275,215.657349"></path>
            </g>
        </g>
    </g>
</svg>